<svg width="88" height="88" viewBox="0 0 88 88" fill="none" xmlns="http://www.w3.org/2000/svg">
<path d="M44 0C19.7371 0 0 19.7371 0 44C0 68.2629 19.7371 88 44 88C68.2629 88 88 68.2629 88 44C88 19.7371 68.2629 0 44 0ZM44 75.1592C26.8131 75.1592 12.8408 61.1869 12.8408 44C12.8408 26.8131 26.8131 12.8408 44 12.8408C61.1869 12.8408 75.1592 26.8131 75.1592 44C75.1592 61.1869 61.1869 75.1592 44 75.1592Z" fill="#DDD0E3" fill-opacity="0.8"/>
<path d="M56.4996 24.4065C55.3861 23.6882 53.9135 23.9576 53.1053 25.0171L43.5151 37.7143C41.6114 37.858 39.8155 38.8637 38.72 40.5878C36.8522 43.5151 37.7143 47.3943 40.6237 49.2621C43.551 51.1298 47.4302 50.2678 49.298 47.3584C50.3935 45.6343 50.5551 43.569 49.8906 41.791L57.3796 27.7469C57.9902 26.5796 57.6131 25.1249 56.4996 24.4065ZM46.1371 45.329C45.3829 46.5143 43.8204 46.8555 42.6351 46.1012C41.4498 45.347 41.1086 43.7845 41.8629 42.5992C42.6171 41.4139 44.1796 41.0727 45.3649 41.8269C46.5502 42.5812 46.8914 44.1437 46.1371 45.329Z" fill="#DDD0E3" fill-opacity="0.8"/>
<path d="M60.1633 36.6188C59.5886 35.3437 60.1453 33.8351 61.4204 33.2604C62.6955 32.6857 64.2041 33.2424 64.7788 34.5175C65.3535 35.7926 64.7967 37.3012 63.5216 37.8759C63.2882 37.9837 63.0547 38.0555 62.8212 38.0735C61.7257 38.2351 60.6302 37.6604 60.1633 36.6188Z" fill="#DDD0E3" fill-opacity="0.8"/>
<path d="M60.8996 55.476C61.9592 56.3919 62.0669 58.0082 61.151 59.0498C60.72 59.5347 60.1633 59.8221 59.5886 59.8939C58.8882 59.9837 58.1518 59.8041 57.5771 59.3013C56.5176 58.3853 56.4098 56.769 57.3257 55.7274C58.2596 54.6678 59.858 54.56 60.8996 55.476Z" fill="#DDD0E3" fill-opacity="0.8"/>
<path d="M66.5747 47.3225C66.3951 48.4719 65.4971 49.316 64.4196 49.4597C64.1861 49.4956 63.9526 49.4956 63.7012 49.4597C62.3184 49.2621 61.3665 47.969 61.5641 46.5862C61.7616 45.2033 63.0547 44.2515 64.4375 44.449C65.8204 44.6466 66.7722 45.9397 66.5747 47.3225Z" fill="#DDD0E3" fill-opacity="0.8"/>
<path d="M44 26.382C44.5208 26.382 45.0596 26.4179 45.5804 26.4538L49.0106 21.9101C49.1363 21.7305 49.28 21.5689 49.4416 21.4073C47.6637 20.9763 45.8498 20.7607 44.018 20.7607C31.2131 20.7607 20.7788 31.1771 20.7788 43.9999C20.7788 49.4775 22.7184 54.8113 26.2563 58.9779L26.5078 59.2652C27.0645 59.8938 27.8367 60.235 28.6269 60.235C29.2735 60.235 29.938 60.0016 30.4767 59.5526C31.6441 58.5289 31.7698 56.7689 30.7461 55.6016L30.5486 55.3681C27.8727 52.1893 26.4 48.1665 26.4 43.9999C26.382 34.284 34.2841 26.382 44 26.382Z" fill="#DDD0E3" fill-opacity="0.8"/>
</svg>
