<svg width="88" height="88" viewBox="0 0 88 88" fill="none" xmlns="http://www.w3.org/2000/svg">
<path d="M88 5.04867C88.0004 4.38556 87.8701 3.72888 87.6165 3.11617C87.3629 2.50346 86.991 1.94675 86.5221 1.47786C86.0532 1.00897 85.4965 0.637099 84.8837 0.383517C84.271 0.129936 83.6143 -0.000387713 82.9512 8.66399e-07H5.04884C3.70981 8.66399e-07 2.42561 0.531913 1.47877 1.47872C0.53193 2.42553 0 3.70968 0 5.04867V82.9336C0 84.2726 0.53193 85.5567 1.47877 86.5036C2.42561 87.4504 3.70981 87.9823 5.04884 87.9823L82.9512 88C84.2902 88 85.5744 87.4681 86.5212 86.5213C87.4681 85.5745 88 84.2903 88 82.9513V5.04867ZM82.6792 82.6794H44V74.5861C43.9983 74.2464 44.0769 73.9111 44.2292 73.6075C44.3816 73.3039 44.6035 73.0406 44.8769 72.8389C45.1503 72.6373 45.4675 72.503 45.8025 72.4471C46.1376 72.3911 46.4812 72.4151 46.8052 72.517C47.3219 72.6814 47.8274 72.8788 48.3187 73.1082C49.4001 73.6736 50.5959 73.9858 51.8157 74.0211C53.0354 74.0565 54.2473 73.814 55.3596 73.312C56.4719 72.8101 57.4554 72.0618 58.236 71.1238C59.0165 70.1858 59.5735 69.0826 59.8649 67.8977C60.1563 66.7127 60.1745 65.477 59.918 64.284C59.6615 63.091 59.1372 61.9719 58.3845 61.0114C57.6319 60.0509 56.6707 59.274 55.5737 58.7396C54.4766 58.2052 53.2724 57.9272 52.0521 57.9267C50.7042 57.9267 48.3187 58.846 48.3187 58.846C47.8283 59.0751 47.3238 59.2725 46.8082 59.4372C46.4839 59.5397 46.1401 59.5641 45.8046 59.5084C45.4691 59.4527 45.1516 59.3186 44.8778 59.1169C44.604 58.9151 44.3818 58.6516 44.2293 58.3477C44.0767 58.0437 43.9982 57.7081 44 57.368V43.9985H30.6064C30.2665 43.9973 29.9312 44.0763 29.6276 44.229C29.324 44.3818 29.0608 44.6039 28.8592 44.8775C28.6576 45.1511 28.5234 45.4684 28.4674 45.8036C28.4115 46.1387 28.4354 46.4824 28.5372 46.8066C28.701 47.3225 28.8985 47.8271 29.1284 48.3171C29.1284 48.3171 30.0447 50.7025 30.0447 52.0504C30.0482 53.2732 29.773 54.4808 29.2402 55.5815C28.7073 56.6821 27.9308 57.647 26.9694 58.4028C26.0081 59.1586 24.8872 59.6855 23.6919 59.9436C22.4965 60.2016 21.2581 60.184 20.0705 59.8921C18.883 59.6002 17.7776 59.0417 16.8381 58.2589C15.8986 57.4761 15.1497 56.4896 14.6484 55.3742C14.147 54.2589 13.9063 53.044 13.9444 51.8217C13.9826 50.5994 14.2987 49.4019 14.8687 48.32C15.0989 47.8291 15.2963 47.3236 15.4599 46.8066C15.5611 46.4826 15.5846 46.1393 15.5284 45.8044C15.4721 45.4696 15.3378 45.1528 15.1363 44.8796C14.9348 44.6064 14.6717 44.3845 14.3684 44.2319C14.0651 44.0794 13.7302 44.0004 13.3907 44.0015H5.32079V5.32062H44V13.3932C44.0011 13.7327 43.9221 14.0676 43.7695 14.3709C43.617 14.6742 43.3951 14.9372 43.1219 15.1388C42.8486 15.3403 42.5318 15.4746 42.197 15.5308C41.8622 15.587 41.5188 15.5635 41.1948 15.4623C40.678 15.2981 40.1725 15.1007 39.6813 14.8711C38.5999 14.3057 37.4041 13.9935 36.1843 13.9582C34.9645 13.9228 33.7527 14.1653 32.6404 14.6673C31.5281 15.1692 30.5446 15.9175 29.764 16.8555C28.9835 17.7935 28.4265 18.8967 28.1351 20.0816C27.8437 21.2666 27.8255 22.5023 28.082 23.6953C28.3385 24.8883 28.8628 26.0074 29.6154 26.9679C30.3681 27.9284 31.3293 28.7053 32.4263 29.2397C33.5234 29.7741 34.7276 30.0521 35.9479 30.0526C37.2958 30.0526 39.6813 29.1363 39.6813 29.1363C40.1713 28.9064 40.6759 28.7089 41.1918 28.5451C41.5161 28.4426 41.8599 28.4182 42.1954 28.4739C42.5309 28.5295 42.8484 28.6637 43.1222 28.8654C43.396 29.0671 43.6182 29.3307 43.7707 29.6346C43.9233 29.9385 44.0018 30.2742 44 30.6142V44.0074H57.4084C57.7461 44.0054 58.0786 43.9241 58.3792 43.7702C58.6798 43.6162 58.9401 43.3938 59.139 43.121C59.338 42.8481 59.4702 42.5323 59.5249 42.1991C59.5796 41.8658 59.5553 41.5244 59.4539 41.2022C59.2898 40.6855 59.0923 40.18 58.8627 39.6888C58.8627 39.6888 57.9464 37.3034 57.9464 35.9555C57.9451 34.7338 58.2219 33.5278 58.7557 32.4289C59.2895 31.33 60.0664 30.3669 61.0276 29.6127C61.9887 28.8585 63.1089 28.3329 64.3033 28.0756C65.4977 27.8184 66.7349 27.8364 67.9213 28.1281C69.1078 28.4199 70.2122 28.9778 71.1511 29.7595C72.09 30.5413 72.8386 31.5265 73.3403 32.6404C73.8421 33.7544 74.0837 34.9679 74.047 36.1891C74.0103 37.4102 73.6961 38.607 73.1284 39.6888C72.8988 40.18 72.7014 40.6855 72.5372 41.2022C72.4365 41.5246 72.4127 41.8661 72.4678 42.1993C72.5229 42.5325 72.6554 42.8482 72.8546 43.121C73.0538 43.3937 73.3141 43.616 73.6148 43.7699C73.9154 43.9239 74.2479 44.0052 74.5857 44.0074H82.6733L82.6792 82.6794Z" fill="#DDD0E3" fill-opacity="0.8"/>
</svg>
