<svg width="88" height="88" viewBox="0 0 88 88" fill="none" xmlns="http://www.w3.org/2000/svg">
<g clip-path="url(#clip0_1_45)">
<path d="M73.8839 35.9949C66.6502 30.8461 58.0781 27.9061 49.2069 27.5318L33.095 26.8517L31.0576 21.8293C32.429 21.9856 33.7868 21.8169 35.0764 21.2938C39.7371 19.4031 41.9755 13.3514 39.5687 7.41881C37.2816 1.78097 31.5822 -1.39339 26.6798 0.595028C21.9991 2.49356 19.7914 8.56315 22.1877 14.47C22.4766 15.1821 27.3188 26.608 27.3188 26.608C27.3188 26.608 14.8643 25.89 14.0985 25.8577C7.89335 25.5991 2.76219 29.6003 2.5446 34.7569C2.32288 40.0137 7.30416 44.61 13.882 44.61C19.8277 44.61 24.6512 40.6954 24.8619 35.6984C24.9195 34.3319 24.6175 32.9792 24.0061 31.7336L29.4922 31.9651L35.2407 46.1362H45.1541L44.0438 43.3989C43.7869 42.7658 43.0653 42.4607 42.4321 42.7176L39.9413 43.7283L35.2686 32.2092L47.6245 32.7305L47.511 35.4162C47.4822 36.0989 48.0124 36.6757 48.6951 36.7046L73.2847 37.7424C73.7111 37.7604 74.0984 37.4959 74.2366 37.0923C74.3747 36.6889 74.2312 36.2426 73.8839 35.9949ZM13.8818 38.7906C10.6959 38.7906 8.28024 36.8734 8.35913 35.0027C8.43544 33.1937 10.801 31.6656 13.5243 31.6656C16.5637 31.6656 19.129 33.5142 19.0472 35.4537C18.9709 37.2625 16.6053 38.7906 13.8818 38.7906ZM27.5806 12.2824C26.439 9.46859 27.1987 6.66514 28.8676 5.98812C30.5045 5.32434 33.023 6.76482 34.1759 9.60678C35.3182 12.4226 34.5565 15.2247 32.8889 15.901C31.252 16.5648 28.7335 15.1241 27.5806 12.2824Z" fill="#DDD0E3" fill-opacity="0.8"/>
<path d="M23.4475 65.2917H21.3424V69.778H23.4475C24.6383 69.778 25.361 69.0976 25.361 67.6518V67.418C25.361 65.9722 24.6381 65.2917 23.4475 65.2917Z" fill="#DDD0E3" fill-opacity="0.8"/>
<path d="M35.5458 65.2917H33.4407V69.2464H35.5458C36.7364 69.2464 37.4593 68.7574 37.4593 67.269C37.4593 65.7806 36.7365 65.2917 35.5458 65.2917Z" fill="#DDD0E3" fill-opacity="0.8"/>
<path d="M83.143 51.9563H4.85704C3.16287 51.9563 1.78925 53.3298 1.78925 55.0241V84.9321C1.78925 86.6264 3.16287 87.9999 4.85704 87.9999H83.143C84.8375 87.9999 86.2108 86.6264 86.2108 84.9321V55.0241C86.2108 53.3298 84.8373 51.9563 83.143 51.9563ZM23.4474 72.3297H21.3423V76.9222C21.3423 77.6026 20.5131 77.9429 19.684 77.9429C18.8549 77.9429 18.0256 77.6028 18.0256 76.9222V63.3996C18.0256 62.8681 18.5146 62.4003 19.2586 62.4003H23.66C26.4665 62.4003 28.6777 63.7184 28.6777 67.2905V67.3967H28.6779C28.6779 70.9689 26.3816 72.3297 23.4474 72.3297ZM38.8202 78.0705C38.395 78.0705 37.9911 77.9003 37.757 77.454L34.8441 71.7982H33.4409V76.9222C33.4409 77.6026 32.6118 77.9429 31.7826 77.9429C30.9535 77.9429 30.1242 77.6028 30.1242 76.9222V63.3996C30.1242 62.8681 30.5281 62.4003 31.145 62.4003H35.5462C38.4589 62.4003 40.7767 63.4846 40.7767 66.9503C40.7767 69.3317 39.6923 70.6926 38.2039 71.2666L40.798 75.9655C40.8831 76.093 40.9042 76.2419 40.9042 76.3483C40.9039 77.1772 39.7982 78.0705 38.8202 78.0705ZM45.8585 76.9222C45.8585 77.6026 45.0294 77.9429 44.2003 77.9429C43.3711 77.9429 42.5418 77.6028 42.5418 76.9222V63.3996C42.5418 62.698 43.3711 62.4003 44.2003 62.4003C45.0294 62.4003 45.8585 62.698 45.8585 63.3996V76.9222ZM53.2364 75.1787C54.9373 75.1787 55.0437 73.8817 55.1074 73.0524C55.171 72.2657 55.8941 72.0531 56.7446 72.0531C57.8927 72.0531 58.4243 72.3508 58.4243 73.6265C58.4243 76.4542 56.128 78.0703 53.0876 78.0703C50.3023 78.0703 47.9848 76.7094 47.9848 73.0524V67.418C47.9848 63.7608 50.3023 62.4001 53.0876 62.4001C56.128 62.4001 58.4243 63.931 58.4243 66.6313C58.4243 67.9072 57.8928 68.2047 56.7659 68.2047C55.8728 68.2047 55.1501 67.9709 55.1076 67.2054C55.0865 66.6525 55.0225 65.2919 53.2153 65.2919C52.0034 65.2919 51.3018 65.9724 51.3018 67.4182V73.0526C51.3018 74.4982 52.0032 75.1787 53.2364 75.1787ZM66.6109 68.8851V68.8853C67.2487 68.8853 67.6101 69.5018 67.6101 70.1823C67.6101 70.7563 67.3125 71.4368 66.6109 71.4368H63.4214V75.0513H69.1197C69.7576 75.0513 70.119 75.7318 70.119 76.5184C70.119 77.1989 69.8213 77.9429 69.1197 77.9429H61.5505C60.8276 77.9429 60.1047 77.6028 60.1047 76.9222V63.4209C60.1047 62.7404 60.8276 62.4001 61.5505 62.4001H69.1197C69.8213 62.4001 70.119 63.1443 70.119 63.8248C70.119 64.6115 69.7576 65.2919 69.1197 65.2919H63.4214V68.8851H66.6109V68.8851Z" fill="#DDD0E3" fill-opacity="0.8"/>
</g>
<defs>
<clipPath id="clip0_1_45">
<rect width="88" height="88" fill="white"/>
</clipPath>
</defs>
</svg>
