<svg width="88" height="88" viewBox="0 0 88 88" fill="none" xmlns="http://www.w3.org/2000/svg">
<path d="M18.172 54.8H17.6C15.688 54.8107 13.8309 55.5995 12.3094 57.047C10.788 58.4945 9.68517 60.5221 9.1677 62.8229C8.65024 65.1237 8.74633 67.5725 9.44143 69.799C10.1365 72.0254 11.3928 73.9083 13.0203 75.1628C14.6477 76.4173 16.5577 76.9751 18.4613 76.7518C20.365 76.5286 22.1586 75.5364 23.571 73.9254C24.9833 72.3144 25.9375 70.1723 26.2892 67.8231C26.6408 65.4738 26.3708 63.0454 25.52 60.905L34.584 43.8C35.5477 43.8657 36.5136 43.7357 37.444 43.4151L44.264 51.94C43.8912 53.66 43.8583 55.4675 44.1681 57.2068C44.4779 58.9462 45.1212 60.5655 46.0425 61.9253C46.9638 63.2852 48.1356 64.3449 49.4571 65.0133C50.7786 65.6817 52.2102 65.9387 53.6288 65.7624C55.0474 65.586 56.4105 64.9815 57.6007 64.0008C58.791 63.0201 59.7729 61.6927 60.4619 60.1326C61.1508 58.5726 61.5263 56.8266 61.5559 55.0451C61.5856 53.2635 61.2685 51.4995 60.632 49.905L69.828 32.8H70.4C72.312 32.7894 74.1691 32.0006 75.6906 30.5531C77.212 29.1056 78.3148 27.078 78.8323 24.7772C79.3498 22.4764 79.2537 20.0276 78.5586 17.8011C77.8635 15.5747 76.6072 13.6918 74.9797 12.4373C73.3523 11.1828 71.4423 10.625 69.5387 10.8483C67.635 11.0715 65.8414 12.0637 64.429 13.6747C63.0167 15.2857 62.0625 17.4278 61.7108 19.777C61.3592 22.1263 61.6292 24.5547 62.48 26.695L53.416 43.8C52.4523 43.7344 51.4864 43.8644 50.556 44.185L43.692 35.66C44.0648 33.9401 44.0977 32.1326 43.7879 30.3933C43.4781 28.6539 42.8348 27.0346 41.9135 25.6748C40.9922 24.3149 39.8204 23.2552 38.4989 22.5868C37.1774 21.9184 35.7458 21.6614 34.3272 21.8377C32.9086 22.0141 31.5456 22.6186 30.3553 23.5993C29.165 24.58 28.1831 25.9074 27.4941 27.4675C26.8052 29.0275 26.4297 30.7735 26.4001 32.555C26.3704 34.3366 26.6875 36.1006 27.324 37.695L18.172 54.8ZM0 10.8C0 4.75005 3.96 -0.199951 8.8 -0.199951H79.2C81.5339 -0.199951 83.7722 0.958974 85.4225 3.02187C87.0729 5.08477 88 7.88267 88 10.8V76.8C88 79.7174 87.0729 82.5153 85.4225 84.5782C83.7722 86.6411 81.5339 87.8 79.2 87.8H8.8C6.46609 87.8 4.22778 86.6411 2.57746 84.5782C0.92714 82.5153 0 79.7174 0 76.8V10.8Z" fill="#DDD0E3" fill-opacity="0.8"/>
</svg>
