<svg width="219" height="59" viewBox="0 0 219 59" fill="none" xmlns="http://www.w3.org/2000/svg">
<path d="M56.1134 38.1493C58.5663 38.1493 60.6707 37.2727 62.4264 35.5195C64.208 33.7662 65.0859 31.652 65.0859 29.1768C65.0859 26.7274 64.208 24.6261 62.4264 22.8728C60.6707 21.0938 58.5663 20.2043 56.1134 20.2043C53.6347 20.2043 51.5175 21.0938 49.7617 22.8728C48.0059 24.6261 47.128 26.7274 47.128 29.1768C47.128 31.652 48.0059 33.7662 49.7617 35.5195C51.5175 37.2727 53.6347 38.1493 56.1134 38.1493ZM56.1134 47.1219C51.156 47.1219 46.9215 45.3686 43.4099 41.8621C39.8984 38.3556 38.1426 34.1272 38.1426 29.1768C38.1426 24.2522 39.8984 20.0367 43.4099 16.5302C46.9215 13.0108 51.156 11.2446 56.1134 11.2446C61.0451 11.2446 65.2667 13.0108 68.7782 16.5302C72.3026 20.0367 74.0713 24.2522 74.0713 29.1768C74.0713 34.1272 72.3026 38.3556 68.7782 41.8621C65.2667 45.3686 61.0451 47.1219 56.1134 47.1219Z" fill="#FEFEFE"/>
<path d="M76.1757 47.1219V38.1493H94.1335C96.5864 38.1493 98.6908 37.2727 100.447 35.5195C102.228 33.7662 103.119 31.652 103.119 29.1768C103.119 26.7274 102.228 24.6261 100.447 22.8728C98.6908 21.0938 96.5864 20.2043 94.1335 20.2043H85.1481V34.617H76.1757V11.2446H94.1335C99.0652 11.2446 103.287 13.0108 106.798 16.5302C110.336 20.0367 112.104 24.2522 112.104 29.1768C112.104 34.1272 110.336 38.3556 106.798 41.8621C103.287 45.3686 99.0652 47.1219 94.1335 47.1219H76.1757Z" fill="#FEFEFE"/>
<path d="M132.257 33.6631V24.6905H150.215V33.6631H132.257ZM132.257 47.1219C127.299 47.1219 123.065 45.3686 119.553 41.8621C116.042 38.3556 114.286 34.1272 114.286 29.1768C114.286 24.2522 116.042 20.0367 119.553 16.5302C123.065 13.0108 127.299 11.2446 132.257 11.2446H150.215V20.2172H132.257C129.778 20.2172 127.661 21.0938 125.905 22.8728C124.149 24.6261 123.272 26.7274 123.272 29.1768C123.272 31.652 124.149 33.7662 125.905 35.5195C127.661 37.2727 129.778 38.1493 132.257 38.1493H150.215V47.1219H132.257Z" fill="#FEFEFE"/>
<path d="M18.0804 47.1219C13.123 47.1219 8.88848 45.3686 5.38986 41.8621C1.87833 38.3556 0.122559 34.1272 0.122559 29.1768C0.122559 24.2522 1.87833 20.0367 5.38986 16.5302C8.88848 13.0108 13.123 11.2446 18.0804 11.2446H43.2421L36.0512 20.2172H18.0804C15.6017 20.2172 13.4845 21.0938 11.7287 22.8728C9.98584 24.6261 9.10796 26.7274 9.10796 29.1768C9.10796 31.652 9.98584 33.7662 11.7287 35.5195C13.4845 37.2727 15.6017 38.1493 18.0804 38.1493H36.0512L44.0426 47.1219H18.0804Z" fill="#FEFEFE"/>
<path d="M156.128 33.663H165.074V24.6904H156.128V33.663Z" fill="#FCDA04"/>
<path d="M218.561 58.1183C210.556 58.1183 203.727 55.295 198.072 49.6356C192.405 43.9891 189.578 37.1695 189.578 29.1767C189.578 21.2355 192.405 14.4288 198.072 8.78226C203.727 3.08419 210.556 0.248047 218.561 0.248047V14.7124C214.558 14.7124 211.137 16.1433 208.31 19.0053C205.483 21.8285 204.063 25.219 204.063 29.1767C204.063 33.1731 205.483 36.5894 208.31 39.4126C211.137 42.2359 214.558 43.6411 218.561 43.6411V58.1183ZM160.594 58.1183V43.6411C164.558 43.6411 167.953 42.2359 170.793 39.4126C173.659 36.5894 175.092 33.1731 175.092 29.1767C175.092 25.219 173.659 21.8285 170.793 19.0053C167.953 16.1433 164.558 14.7124 160.594 14.7124V0.248047C168.56 0.248047 175.376 3.08419 181.031 8.78226C186.724 14.4288 189.578 21.2355 189.578 29.1767C189.578 37.1695 186.724 43.9891 181.031 49.6356C175.376 55.295 168.56 58.1183 160.594 58.1183Z" fill="#FCDA04"/>
<path d="M45.4885 57.0612C45.4755 57.0483 45.4626 57.0226 45.4626 56.9968C45.4626 56.971 45.4755 56.9452 45.4885 56.9065C45.5917 56.6358 45.7467 56.1846 45.979 55.5658C46.2114 54.9341 46.3922 54.4056 46.56 53.9544C46.5729 53.9157 46.5858 53.8899 46.6116 53.8641C46.6375 53.8383 46.6762 53.8383 46.7278 53.8383H47.4121C47.5024 53.8383 47.567 53.877 47.6186 53.9544C47.9285 54.831 48.0963 55.308 48.135 55.4111C48.1608 55.4756 48.1737 55.5014 48.1737 55.5014C48.1996 55.5014 48.2125 55.4756 48.2254 55.4111C48.277 55.0373 48.3674 54.5087 48.4707 53.8255C48.574 53.1422 48.6514 52.6523 48.7031 52.3429C48.7031 52.3043 48.7289 52.2785 48.7418 52.2656C48.7676 52.2527 48.7934 52.2527 48.8322 52.2527H49.5293C49.5551 52.2527 49.5809 52.2656 49.5939 52.3043C49.6068 52.33 49.6068 52.3687 49.5939 52.4074L48.7676 56.9968C48.7547 57.0612 48.716 57.087 48.6385 57.087H47.9026C47.8639 57.087 47.8381 57.087 47.8123 57.0741C47.7864 57.0612 47.7735 57.0355 47.7606 56.9968C47.6961 56.8163 47.5928 56.494 47.4508 56.0686C47.3088 55.6303 47.1926 55.2951 47.128 55.063C47.1151 55.0373 47.1151 55.0244 47.1022 55.0244C47.0893 55.0244 47.0764 55.0373 47.0635 55.063L46.418 56.9968C46.4051 57.0612 46.3663 57.087 46.2889 57.087H45.5401C45.5272 57.087 45.5014 57.087 45.4885 57.0612ZM45.1399 55.4369C45.127 55.4369 45.1141 55.424 45.1141 55.3853L44.5331 52.4074C44.5202 52.3945 44.5202 52.3816 44.5202 52.3558C44.5202 52.2785 44.546 52.2527 44.6106 52.2527H45.2948C45.3723 52.2527 45.411 52.2785 45.4239 52.3429L45.7208 53.9673C45.7208 53.9802 45.7208 53.993 45.7208 54.0317C45.7208 54.1091 45.7208 54.1864 45.695 54.238C45.6434 54.354 45.5659 54.5345 45.4497 54.7923C45.3335 55.0502 45.2432 55.2564 45.1915 55.3982C45.1786 55.424 45.1657 55.4369 45.1399 55.4369Z" fill="#FCDA04"/>
<path d="M53.4411 57.0355C53.4153 57.0097 53.4023 56.971 53.4023 56.9453V52.3945C53.4023 52.3559 53.4153 52.3301 53.4411 52.3043C53.4669 52.2785 53.4927 52.2656 53.5314 52.2656H56.6299C56.6686 52.2656 56.6944 52.2785 56.7202 52.3043C56.746 52.3301 56.759 52.3559 56.759 52.3945V52.9747C56.759 53.0004 56.746 53.0391 56.7202 53.0649C56.6944 53.0907 56.6686 53.1036 56.6299 53.1036H54.3964C54.3577 53.1036 54.3319 53.1165 54.306 53.1294C54.2802 53.1551 54.2673 53.1809 54.2673 53.2196V54.2638C54.2673 54.3025 54.2802 54.3283 54.2931 54.3412C54.319 54.367 54.3577 54.367 54.4351 54.367H56.1522C56.1909 54.367 56.2167 54.3798 56.2426 54.4056C56.2684 54.4185 56.2813 54.4443 56.2813 54.483V55.0631C56.2813 55.1018 56.2684 55.1276 56.2426 55.1404C56.2167 55.1662 56.1909 55.1791 56.1522 55.1791H54.4222C54.3577 55.1791 54.319 55.192 54.306 55.2307C54.2802 55.2694 54.2673 55.2951 54.2673 55.3338V56.0686C54.2673 56.1073 54.2802 56.1589 54.306 56.1847C54.3319 56.2233 54.3835 56.2362 54.461 56.2362H56.6815C56.7073 56.2362 56.7331 56.2491 56.759 56.2749C56.7848 56.3007 56.7977 56.3265 56.7977 56.3651V56.9453C56.7977 56.971 56.7848 57.0097 56.7719 57.0355C56.746 57.0613 56.7073 57.0742 56.6815 57.0742H53.5314C53.4927 57.0742 53.4669 57.0613 53.4411 57.0355Z" fill="#FCDA04"/>
<path d="M62.5556 56.2749C62.7234 56.2749 62.8654 56.2233 62.9816 56.1073C63.0978 55.9913 63.1494 55.8495 63.1494 55.669C63.1494 55.5014 63.0978 55.3596 62.9816 55.2436C62.8654 55.1276 62.7234 55.076 62.5556 55.076H61.6389C61.5228 55.076 61.4582 55.1276 61.4582 55.2436V56.1073C61.4582 56.2233 61.5228 56.2878 61.6389 56.2878L62.5556 56.2749ZM62.1295 54.2638C62.2844 54.2638 62.4265 54.2123 62.5426 54.0962C62.6588 53.9673 62.7105 53.8384 62.7105 53.6708C62.7105 53.5032 62.6459 53.3614 62.5297 53.2454C62.4135 53.1294 62.2715 53.0778 62.1166 53.0778H61.6002C61.5098 53.0778 61.4582 53.1294 61.4582 53.2583V54.0962C61.4582 54.2123 61.5228 54.2638 61.6389 54.2638H62.1295ZM60.6578 56.9453V52.4074C60.6578 52.343 60.6707 52.3172 60.6836 52.2914C60.7094 52.2785 60.7481 52.2656 60.8127 52.2656H62.1166C62.3619 52.2656 62.5943 52.3301 62.8138 52.459C63.0203 52.5879 63.2011 52.7555 63.3172 52.9618C63.4463 53.1809 63.5109 53.413 63.5109 53.6708C63.5109 53.9544 63.4334 54.1994 63.2914 54.4185C63.5238 54.5603 63.7046 54.7408 63.8337 54.96C63.9757 55.1791 64.0402 55.4112 64.0402 55.669C64.0402 55.9268 63.9757 56.1589 63.8466 56.378C63.7304 56.5843 63.5625 56.7648 63.3431 56.8808C63.1236 57.0097 62.8912 57.0742 62.633 57.0742L60.8385 57.0871C60.7223 57.0871 60.6578 57.0355 60.6578 56.9453Z" fill="#FCDA04"/>
<path d="M75.1687 56.1716C75.4398 56.1716 75.698 56.1071 75.9175 55.9653C76.1499 55.8364 76.3435 55.6559 76.4726 55.4239C76.6146 55.1918 76.6792 54.9469 76.6792 54.6762C76.6792 54.4054 76.6146 54.1476 76.4726 53.9155C76.3435 53.6964 76.1499 53.503 75.9175 53.3741C75.698 53.2323 75.4398 53.1678 75.1687 53.1678H74.6136C74.5878 53.1678 74.5749 53.1807 74.5619 53.1936C74.5361 53.2065 74.5361 53.2323 74.5361 53.2452V56.1716H75.1687ZM73.697 56.9966C73.6582 56.958 73.6453 56.9193 73.6453 56.8548V52.433C73.6453 52.3943 73.6582 52.3557 73.6841 52.317C73.7099 52.2912 73.7486 52.2783 73.7873 52.2783H75.1687C75.6077 52.2783 76.0079 52.3815 76.3693 52.6006C76.7308 52.8069 77.0278 53.1034 77.2343 53.4772C77.4538 53.8382 77.5571 54.2378 77.5571 54.6762C77.5571 55.1016 77.4538 55.5012 77.2343 55.8751C77.0278 56.236 76.7308 56.5325 76.3693 56.7388C76.0079 56.958 75.6077 57.0611 75.1687 57.0611H73.839C73.7873 57.0611 73.7357 57.0482 73.697 56.9966Z" fill="#FCDA04"/>
<path d="M81.2752 57.0355C81.2494 57.0097 81.2365 56.971 81.2365 56.9453V52.3945C81.2365 52.3559 81.2494 52.3301 81.2752 52.3043C81.301 52.2785 81.3268 52.2656 81.3526 52.2656H84.4511C84.4898 52.2656 84.5156 52.2785 84.5414 52.3043C84.5672 52.3301 84.5801 52.3559 84.5801 52.3945V52.9747C84.5801 53.0004 84.5672 53.0391 84.5414 53.0649C84.5156 53.0907 84.4898 53.1036 84.4511 53.1036H82.2176C82.1918 53.1036 82.166 53.1165 82.1402 53.1294C82.1143 53.1551 82.1014 53.1809 82.1014 53.2196V54.2638C82.1014 54.3025 82.1014 54.3283 82.1272 54.3412C82.1402 54.367 82.1918 54.367 82.2563 54.367H83.9863C84.0121 54.367 84.0379 54.3798 84.0638 54.4056C84.0896 54.4185 84.1025 54.4443 84.1025 54.483V55.0631C84.1025 55.1018 84.0896 55.1276 84.0638 55.1404C84.0379 55.1662 84.0121 55.1791 83.9863 55.1791H82.2434C82.1918 55.1791 82.1531 55.192 82.1272 55.2307C82.1014 55.2694 82.1014 55.2951 82.1014 55.3338V56.0686C82.1014 56.1073 82.1143 56.1589 82.1402 56.1847C82.166 56.2233 82.2176 56.2362 82.2951 56.2362H84.5027C84.5285 56.2362 84.5672 56.2491 84.5931 56.2749C84.6189 56.3007 84.6318 56.3265 84.6318 56.3651V56.9453C84.6318 56.971 84.6189 57.0097 84.5931 57.0355C84.5672 57.0613 84.5414 57.0742 84.5027 57.0742H81.3526C81.3268 57.0742 81.301 57.0613 81.2752 57.0355Z" fill="#FCDA04"/>
<path d="M92.0938 52.3429C92.0938 52.3687 92.0938 52.3945 92.0809 52.4074L90.8286 56.9968C90.8157 57.0355 90.8028 57.0612 90.7769 57.0741C90.7511 57.087 90.7253 57.087 90.6737 57.087H89.8216C89.7829 57.087 89.7441 57.087 89.7183 57.0741C89.6925 57.0612 89.6796 57.0355 89.6667 56.9968L88.4144 52.4074C88.4144 52.3945 88.4015 52.3687 88.4015 52.3429C88.4015 52.2785 88.4402 52.2527 88.4919 52.2527H89.1245C89.1761 52.2527 89.2148 52.2527 89.2406 52.2656C89.2665 52.2785 89.2794 52.3043 89.2923 52.3429C89.3827 52.6652 89.5247 53.2067 89.7312 53.9415C89.9249 54.6892 90.0798 55.2564 90.196 55.6561C90.2089 55.7463 90.2347 55.785 90.2476 55.785C90.2605 55.785 90.2864 55.7463 90.2993 55.6561C90.4025 55.2564 90.5575 54.6892 90.764 53.9415C90.9706 53.2067 91.1126 52.6652 91.203 52.3429C91.2159 52.3043 91.2288 52.2785 91.2546 52.2656C91.2804 52.2527 91.3192 52.2527 91.3708 52.2527H92.0034C92.0679 52.2527 92.0938 52.2785 92.0938 52.3429Z" fill="#FCDA04"/>
<path d="M95.9023 57.0355C95.8764 57.0097 95.8635 56.971 95.8635 56.9453V52.3945C95.8635 52.3559 95.8764 52.3301 95.9023 52.3043C95.9281 52.2785 95.9539 52.2656 95.9926 52.2656H99.091C99.1298 52.2656 99.1556 52.2785 99.1814 52.3043C99.2072 52.3301 99.2201 52.3559 99.2201 52.3945V52.9747C99.2201 53.0004 99.2072 53.0391 99.1814 53.0649C99.1556 53.0907 99.1298 53.1036 99.091 53.1036H96.8576C96.8189 53.1036 96.793 53.1165 96.7672 53.1294C96.7414 53.1551 96.7285 53.1809 96.7285 53.2196V54.2638C96.7285 54.3025 96.7414 54.3283 96.7543 54.3412C96.7801 54.367 96.8189 54.367 96.8963 54.367H98.6134C98.6521 54.367 98.6779 54.3798 98.7037 54.4056C98.7296 54.4185 98.7425 54.4443 98.7425 54.483V55.0631C98.7425 55.1018 98.7296 55.1276 98.7037 55.1404C98.6779 55.1662 98.6521 55.1791 98.6134 55.1791H96.8834C96.8189 55.1791 96.7801 55.192 96.7672 55.2307C96.7414 55.2694 96.7285 55.2951 96.7285 55.3338V56.0686C96.7285 56.1073 96.7414 56.1589 96.7672 56.1847C96.793 56.2233 96.8447 56.2362 96.9221 56.2362H99.1427C99.1685 56.2362 99.1943 56.2491 99.2201 56.2749C99.246 56.3007 99.2589 56.3265 99.2589 56.3651V56.9453C99.2589 56.971 99.246 57.0097 99.2331 57.0355C99.2072 57.0613 99.1685 57.0742 99.1427 57.0742H95.9926C95.9539 57.0742 95.9281 57.0613 95.9023 57.0355Z" fill="#FCDA04"/>
<path d="M103.287 57.0483C103.248 57.0226 103.235 56.9839 103.235 56.9452V52.3945C103.235 52.3558 103.248 52.33 103.287 52.2914C103.313 52.2656 103.351 52.2527 103.377 52.2527H104.1C104.139 52.2527 104.165 52.2656 104.203 52.2914C104.229 52.33 104.242 52.3558 104.242 52.3945V56.0299C104.242 56.0686 104.255 56.1073 104.281 56.133C104.307 56.1588 104.345 56.1846 104.371 56.1846H106.05C106.088 56.1846 106.127 56.1975 106.153 56.2233C106.179 56.2491 106.192 56.2749 106.192 56.3135V56.9452C106.192 56.9839 106.179 57.0226 106.153 57.0483C106.127 57.0741 106.088 57.087 106.05 57.087H103.377C103.351 57.087 103.313 57.0741 103.287 57.0483Z" fill="#FCDA04"/>
<path d="M113.008 55.7206C113.124 55.5788 113.215 55.4499 113.279 55.3209C113.37 55.1018 113.408 54.8826 113.408 54.6635C113.408 54.367 113.331 54.0833 113.163 53.8126C112.995 53.5548 112.776 53.3485 112.479 53.2196C112.272 53.1294 112.053 53.0907 111.82 53.0907C111.614 53.0907 111.42 53.1165 111.239 53.1938C111.059 53.2712 110.891 53.3743 110.736 53.5161L110.62 53.645C110.491 53.7997 110.4 53.9544 110.336 54.1349C110.271 54.3154 110.245 54.4959 110.245 54.6764C110.245 54.9084 110.297 55.1276 110.387 55.3338C110.491 55.553 110.633 55.7335 110.813 55.8753C111.11 56.1331 111.459 56.2491 111.833 56.2491C112.091 56.2491 112.324 56.1976 112.543 56.0944C112.724 55.9913 112.879 55.8624 113.008 55.7206ZM110 56.3394C109.768 56.0815 109.6 55.7979 109.497 55.4756L109.484 55.4499C109.393 55.192 109.354 54.9342 109.354 54.6764C109.354 54.3927 109.406 54.1091 109.497 53.8384C109.6 53.5548 109.742 53.3099 109.935 53.0778C110.194 52.8071 110.439 52.6008 110.71 52.459C110.968 52.3043 111.291 52.227 111.691 52.2012H111.717C112.104 52.1754 112.479 52.2527 112.84 52.4074C113.073 52.5106 113.305 52.6653 113.512 52.8586C113.731 53.052 113.886 53.2454 113.976 53.4388C114.196 53.8126 114.299 54.2252 114.299 54.6635C114.299 54.9213 114.26 55.1791 114.183 55.4241C114.105 55.669 113.989 55.9011 113.847 56.1073C113.731 56.2749 113.602 56.4167 113.46 56.5327C113.331 56.6617 113.163 56.7648 112.969 56.8808C112.608 57.0613 112.221 57.1515 111.82 57.1515C111.472 57.1515 111.136 57.0742 110.813 56.9324C110.491 56.7906 110.219 56.5843 110 56.3394Z" fill="#FCDA04"/>
<path d="M119.76 54.4314C119.941 54.4314 120.096 54.367 120.225 54.2509C120.341 54.122 120.406 53.9673 120.406 53.7868C120.406 53.6192 120.341 53.4645 120.225 53.3356C120.096 53.2196 119.941 53.1551 119.76 53.1551H119.063C118.96 53.1551 118.895 53.2067 118.895 53.297V54.4314H119.76ZM118.069 57.0484C118.043 57.0226 118.03 56.9968 118.03 56.971V52.3945C118.03 52.3559 118.043 52.3172 118.069 52.3043C118.095 52.2785 118.12 52.2656 118.159 52.2656H119.76C120.044 52.2656 120.302 52.3301 120.535 52.4719C120.767 52.6008 120.948 52.7942 121.09 53.0262C121.232 53.2583 121.296 53.5161 121.296 53.7868C121.296 54.0704 121.232 54.3283 121.09 54.5603C120.948 54.7924 120.767 54.9729 120.535 55.1147C120.302 55.2436 120.044 55.3209 119.76 55.3209H119.076C119.024 55.3209 118.973 55.3209 118.947 55.3467C118.921 55.3725 118.895 55.3983 118.895 55.4498V56.971C118.895 56.9968 118.895 57.0226 118.869 57.0484C118.843 57.0742 118.818 57.0871 118.779 57.0871H118.159C118.12 57.0871 118.095 57.0742 118.069 57.0484Z" fill="#FCDA04"/>
<path d="M125.079 57.0484C125.053 57.0226 125.053 56.9968 125.053 56.971V52.3945C125.053 52.3559 125.053 52.3301 125.079 52.3043C125.105 52.2785 125.131 52.2656 125.169 52.2656H125.841C125.892 52.2656 125.918 52.2914 125.944 52.3301L127.003 54.0704C127.003 54.0833 127.015 54.0962 127.041 54.1091C127.054 54.1349 127.08 54.1478 127.119 54.1478H127.132C127.157 54.1478 127.183 54.1349 127.196 54.1091C127.222 54.0962 127.222 54.0704 127.235 54.0704L128.281 52.343C128.306 52.2914 128.345 52.2656 128.384 52.2656H129.068C129.107 52.2656 129.133 52.2785 129.159 52.3043C129.171 52.3301 129.184 52.3559 129.184 52.3945V56.971C129.184 56.9968 129.171 57.0226 129.159 57.0484C129.133 57.0742 129.107 57.0871 129.068 57.0871H128.397C128.358 57.0871 128.332 57.0742 128.306 57.0613C128.281 57.0355 128.268 56.9968 128.268 56.971V54.2251C128.268 54.1736 128.255 54.1607 128.242 54.1607C128.229 54.1607 128.203 54.1736 128.177 54.2123L127.454 55.2436C127.416 55.2951 127.377 55.3338 127.351 55.3596C127.312 55.3725 127.261 55.3854 127.196 55.3854H127.08C126.99 55.3854 126.925 55.3725 126.899 55.3596C126.861 55.3467 126.835 55.3209 126.796 55.2694L126.047 54.2123C126.021 54.1736 125.996 54.1607 125.983 54.1607C125.97 54.1607 125.957 54.1736 125.957 54.2123V56.971C125.957 56.9968 125.944 57.0226 125.931 57.0484C125.905 57.0742 125.879 57.0871 125.841 57.0871H125.169C125.131 57.0871 125.105 57.0742 125.079 57.0484Z" fill="#FCDA04"/>
<path d="M133.199 57.0355C133.174 57.0097 133.161 56.971 133.161 56.9453V52.3945C133.161 52.3559 133.174 52.3301 133.199 52.3043C133.225 52.2785 133.251 52.2656 133.277 52.2656H136.375C136.414 52.2656 136.44 52.2785 136.466 52.3043C136.491 52.3301 136.504 52.3559 136.504 52.3945V52.9747C136.504 53.0004 136.491 53.0391 136.466 53.0649C136.44 53.0907 136.414 53.1036 136.375 53.1036H134.142C134.116 53.1036 134.09 53.1165 134.064 53.1294C134.039 53.1551 134.026 53.1809 134.026 53.2196V54.2638C134.026 54.3025 134.026 54.3283 134.051 54.3412C134.064 54.367 134.116 54.367 134.181 54.367H135.91C135.936 54.367 135.962 54.3798 135.988 54.4056C136.014 54.4185 136.027 54.4443 136.027 54.483V55.0631C136.027 55.1018 136.014 55.1276 135.988 55.1404C135.962 55.1662 135.936 55.1791 135.91 55.1791H134.168C134.116 55.1791 134.077 55.192 134.051 55.2307C134.026 55.2694 134.026 55.2951 134.026 55.3338V56.0686C134.026 56.1073 134.039 56.1589 134.064 56.1847C134.09 56.2233 134.142 56.2362 134.219 56.2362H136.427C136.453 56.2362 136.491 56.2491 136.517 56.2749C136.543 56.3007 136.556 56.3265 136.556 56.3651V56.9453C136.556 56.971 136.543 57.0097 136.517 57.0355C136.491 57.0613 136.466 57.0742 136.427 57.0742H133.277C133.251 57.0742 133.225 57.0613 133.199 57.0355Z" fill="#FCDA04"/>
<path d="M140.403 57.0484C140.377 57.0355 140.364 57.0097 140.364 56.9839V52.3559C140.364 52.3301 140.377 52.3043 140.403 52.2914C140.416 52.2785 140.442 52.2656 140.468 52.2656H141.178C141.204 52.2656 141.229 52.2785 141.255 52.3172L142.895 55.076C142.946 55.1662 142.985 55.2178 143.011 55.2178C143.05 55.2178 143.076 55.1662 143.076 55.0631L143.05 52.3559C143.05 52.3301 143.063 52.3043 143.088 52.2914C143.101 52.2785 143.127 52.2656 143.166 52.2656H143.889C143.915 52.2656 143.941 52.2785 143.953 52.2914C143.979 52.3043 143.992 52.3301 143.992 52.3559V56.9839C143.992 57.0097 143.979 57.0355 143.953 57.0484C143.941 57.0613 143.915 57.0742 143.889 57.0742H143.398C143.308 57.0742 143.256 57.0742 143.218 57.0613C143.192 57.0484 143.153 57.0097 143.114 56.9453L141.371 54.1736C141.346 54.1349 141.32 54.1091 141.307 54.1091C141.268 54.1091 141.242 54.1478 141.242 54.2123L141.255 56.9839C141.255 57.0097 141.242 57.0355 141.229 57.0484C141.204 57.0613 141.191 57.0742 141.165 57.0742H140.468C140.442 57.0742 140.416 57.0613 140.403 57.0484Z" fill="#FCDA04"/>
<path d="M149.247 57.0613C149.234 57.0484 149.221 57.0226 149.221 56.9968V53.2583C149.221 53.2196 149.208 53.1809 149.169 53.1423C149.143 53.1165 149.092 53.0907 149.053 53.0907H147.891C147.865 53.0907 147.852 53.0907 147.839 53.0649C147.814 53.052 147.801 53.0262 147.801 53.0133V52.343C147.801 52.3172 147.814 52.3043 147.826 52.2785C147.852 52.2656 147.865 52.2656 147.891 52.2656H151.545C151.57 52.2656 151.596 52.2785 151.609 52.2914C151.622 52.3043 151.635 52.3301 151.635 52.3559V53.0004C151.635 53.0262 151.622 53.052 151.609 53.0649C151.596 53.0907 151.57 53.0907 151.545 53.0907H150.396C150.344 53.0907 150.305 53.1036 150.279 53.1423C150.241 53.168 150.228 53.2067 150.228 53.2583V56.9968C150.228 57.0226 150.215 57.0484 150.202 57.0613C150.189 57.0742 150.163 57.0871 150.137 57.0871H149.311C149.285 57.0871 149.259 57.0742 149.247 57.0613Z" fill="#FCDA04"/>
</svg>
